<?xml version="1.0" standalone="no"?>
<!DOCTYPE svg PUBLIC "-//W3C//DTD SVG 20010904//EN"
 "http://www.w3.org/TR/2001/REC-SVG-20010904/DTD/svg10.dtd">
<svg version="1.0" xmlns="http://www.w3.org/2000/svg"
 width="2110.000000pt" height="2110.000000pt" viewBox="0 0 2110.000000 2110.000000"
 preserveAspectRatio="xMidYMid meet">

<g transform="translate(0.000000,2110.000000) scale(0.100000,-0.100000)"
fill="#000000" stroke="none">
<path d="M5730 21089 c-451 -17 -1083 -90 -1344 -154 -34 -8 -104 -23 -156
-34 -287 -58 -717 -194 -1035 -329 -846 -358 -1528 -927 -1997 -1667 -540
-853 -827 -1924 -878 -3275 -14 -364 -13 -9812 0 -10170 25 -649 99 -1205 231
-1725 40 -158 133 -473 149 -504 5 -9 21 -52 36 -96 36 -108 155 -387 216
-510 227 -452 486 -814 827 -1156 913 -913 2228 -1392 4001 -1459 355 -13
9202 -13 9550 0 1609 62 2808 451 3720 1208 149 124 400 376 521 522 755 913
1149 2128 1209 3730 13 356 13 9822 0 10170 -68 1774 -543 3073 -1460 3990
-912 913 -2229 1393 -4000 1460 -316 12 -9278 11 -9590 -1z m2645 -4309 c33
-5 88 -24 122 -41 72 -36 123 -87 394 -394 353 -398 425 -480 445 -504 10 -13
102 -116 202 -230 206 -231 272 -318 302 -397 29 -80 36 -176 16 -251 -32
-128 -46 -145 -425 -528 -196 -198 -489 -497 -651 -664 -162 -167 -314 -316
-336 -332 -95 -65 -250 -94 -362 -69 -274 64 -401 393 -241 627 31 45 76 94
345 373 61 63 129 135 152 160 l41 45 -247 3 c-605 6 -1112 -96 -1652 -333
-700 -307 -1333 -862 -1752 -1535 -276 -444 -476 -949 -544 -1377 -3 -19 -8
-45 -11 -57 -10 -44 -35 -237 -47 -371 -17 -173 -20 -508 -7 -635 6 -52 13
-124 16 -160 21 -217 78 -515 137 -715 129 -436 340 -864 596 -1213 388 -526
889 -954 1442 -1232 320 -161 705 -288 1075 -355 217 -39 528 -60 784 -51 721
24 1358 231 1971 639 305 203 703 573 1184 1102 15 17 51 55 80 85 28 30 105
114 171 185 66 72 145 157 176 190 32 33 67 71 78 84 32 37 155 173 169 188 8
7 30 26 50 41 21 15 39 29 42 32 11 11 88 44 135 56 76 21 146 17 238 -13 73
-24 89 -34 148 -92 168 -169 182 -388 36 -581 -37 -50 -185 -220 -268 -310
-18 -19 -82 -89 -143 -155 -385 -419 -894 -944 -1105 -1139 -213 -196 -528
-429 -751 -554 -487 -274 -933 -444 -1430 -546 -160 -32 -280 -52 -405 -65
-55 -6 -120 -13 -145 -15 -25 -3 -142 -8 -260 -12 -506 -16 -1040 70 -1625
261 -250 82 -660 273 -915 427 -110 67 -417 271 -430 287 -3 4 -36 31 -75 61
-181 140 -442 382 -574 532 -226 259 -401 497 -573 780 -58 96 -219 407 -252
488 -10 25 -28 65 -39 90 -64 144 -94 220 -137 345 -50 145 -124 395 -140 468
-57 273 -102 539 -116 684 -3 32 -7 72 -9 88 -19 135 -13 714 9 832 2 10 7 47
11 83 40 375 154 852 281 1180 36 92 83 208 104 255 10 22 32 74 50 115 35 79
128 260 167 322 13 21 23 39 23 42 0 6 108 185 168 276 47 72 245 345 262 360
3 3 28 32 55 65 175 209 407 445 585 595 36 30 67 57 70 61 9 10 213 165 306
232 426 306 1031 585 1554 717 235 59 549 111 795 131 77 7 296 13 486 13
l345 1 -145 170 c-80 94 -195 226 -256 295 -134 152 -189 223 -211 276 -52
119 -52 242 1 350 54 111 150 191 269 225 72 21 109 22 191 9z m4983 -1330
c495 -36 984 -151 1487 -349 225 -89 591 -287 835 -451 117 -79 375 -273 410
-310 3 -3 57 -51 120 -107 618 -546 1094 -1266 1377 -2084 47 -137 55 -164
102 -349 113 -438 184 -1013 167 -1355 -11 -217 -26 -396 -41 -495 -2 -14 -11
-74 -20 -135 -60 -413 -210 -914 -391 -1310 -192 -420 -392 -738 -714 -1130
-213 -259 -356 -401 -640 -639 -244 -203 -527 -384 -875 -561 -342 -173 -617
-275 -1015 -378 -197 -51 -466 -98 -645 -112 -44 -4 -96 -9 -115 -12 -19 -2
-216 -7 -438 -10 l-402 -5 42 -52 c24 -28 45 -53 48 -56 10 -10 397 -465 445
-525 26 -33 62 -89 79 -125 28 -60 31 -73 31 -175 0 -107 -1 -112 -37 -186
-41 -83 -116 -162 -190 -200 -109 -55 -264 -56 -380 -2 -74 35 -131 88 -253
233 -139 165 -587 682 -859 990 -130 147 -181 212 -204 256 -78 157 -55 358
57 498 54 68 109 125 715 751 558 575 604 619 677 653 288 136 608 -66 609
-384 0 -85 -24 -162 -74 -236 -42 -64 -47 -69 -300 -331 -111 -115 -202 -213
-204 -218 -5 -12 536 -4 668 10 145 16 168 19 305 42 139 24 356 75 402 94 18
8 33 12 33 10 0 -7 276 92 399 144 283 119 550 272 801 460 230 172 549 476
711 678 200 249 345 472 480 738 209 414 344 868 394 1325 9 74 17 153 20 175
13 117 17 433 6 560 -21 255 -27 308 -52 460 -73 442 -237 915 -444 1280 -127
224 -225 369 -393 580 -187 234 -429 475 -637 635 -38 29 -72 56 -75 60 -3 3
-50 37 -106 76 -457 320 -925 521 -1484 638 -358 75 -943 88 -1310 30 -633
-101 -1147 -319 -1665 -708 -262 -196 -730 -661 -1281 -1272 -488 -541 -507
-558 -663 -599 -77 -20 -122 -19 -202 3 -88 25 -147 60 -204 124 -162 180
-149 406 35 605 24 26 103 111 175 188 209 226 579 626 747 810 185 203 477
490 643 633 133 115 414 328 545 413 350 229 652 373 1060 509 277 91 654 166
1005 199 132 12 514 13 683 1z m-5903 -3914 c90 -16 217 -57 285 -91 71 -36
199 -136 267 -208 94 -101 155 -199 211 -343 74 -187 76 -444 6 -654 -91 -272
-325 -510 -600 -609 -288 -105 -591 -70 -859 97 -65 40 -192 155 -236 212 -18
25 -37 47 -40 50 -3 3 -25 39 -49 80 -47 83 -104 243 -119 335 -10 63 -8 268
3 320 47 215 130 378 265 518 227 236 558 348 866 293z m3360 -21 c314 -95
555 -322 661 -626 70 -199 72 -464 6 -649 -58 -162 -139 -288 -255 -395 -238
-221 -535 -313 -841 -259 -381 66 -689 350 -786 724 -32 125 -36 323 -9 450
74 345 313 619 639 734 134 47 193 56 350 52 122 -3 159 -8 235 -31z m3235 5
c47 -12 117 -37 157 -55 92 -42 234 -140 295 -202 67 -69 156 -198 190 -273
16 -36 33 -74 38 -85 51 -112 76 -364 50 -508 -16 -93 -70 -243 -109 -307 -17
-28 -31 -53 -31 -56 0 -10 -100 -135 -134 -169 -259 -255 -609 -351 -946 -259
-399 108 -680 438 -731 856 -22 176 15 364 107 554 42 86 134 210 194 260 14
12 41 36 60 53 98 88 260 166 420 202 116 26 318 21 440 -11z"/>
</g>
</svg>
